# xmcd
#
# Track frame offsets:
#	150
#	13627
#	32190
#	48253
#	64149
#	82504
#	95442
#	113670
#	131690
#	145915
#	162756
#	176864
#	192788
#	210557
#	229220
#	243439
#	257558
#	270704
#	287055
#	302855
#	321300
#	337841
#
# Disc length: 4718 seconds
#
# Revision: 1
# Processed by: cddbd v1.5.2PL0 Copyright (c) Steve Scherf et al.
# Submitted via: audiograbber 1.83.01
#
DISCID=33126c16
DTITLE=BANDA EL MEXICANO - 22 EXITOS
DYEAR=2004
DGENRE=BANDA
TTITLE0=INTRO MIX
TTITLE1=COMPRATE UN PERRITO
TTITLE2=QUIEN PIENSA EN TI
TTITLE3=LA BOTA
TTITLE4=NO BAILES DE CABALLITO
TTITLE5=PELON PELONETE
TTITLE6=QUE SABROSA ESTAS
TTITLE7=MAMBO ACELERADO
TTITLE8=ASI SE BAILA
TTITLE9=EL BORRACHITO
TTITLE10=RABIA Y DOLOR
TTITLE11=QUIEN SERA
TTITLE12=EL MUNDO
TTITLE13=LA MORENA
TTITLE14=COMO ESTAS
TTITLE15=EL FUCHI FUCHI
TTITLE16=LA PLACA
TTITLE17=MAMBO LUPITA
TTITLE18=MARI ORGULLOSA
TTITLE19=BAILANDO DE CABALLITO
TTITLE20=FELIZ FELIZ
TTITLE21=RAMITO DE VIOLETAS
EXTD=
EXTT0=
EXTT1=
EXTT2=
EXTT3=
EXTT4=
EXTT5=
EXTT6=
EXTT7=
EXTT8=
EXTT9=
EXTT10=
EXTT11=
EXTT12=
EXTT13=
EXTT14=
EXTT15=
EXTT16=
EXTT17=
EXTT18=
EXTT19=
EXTT20=
EXTT21=
PLAYORDER=
